<?xml version="1.0" standalone="no"?><!DOCTYPE svg PUBLIC "-//W3C//DTD SVG 1.1//EN" "http://www.w3.org/Graphics/SVG/1.1/DTD/svg11.dtd"><svg class="icon" width="200px" height="200.00px" viewBox="0 0 1024 1024" version="1.1" xmlns="http://www.w3.org/2000/svg"><path d="M856 191.5H726v-59a4 4 0 0 0-4-4h-64a4 4 0 0 0-4 4v59H370v-59a4 4 0 0 0-4-4h-64a4 4 0 0 0-4 4v59H168a40 40 0 0 0-40 40v624a40 40 0 0 0 40 40h688a40 40 0 0 0 40-40v-624a40 40 0 0 0-40-40z m-32 632H200v-359h624z m0-431H200v-129h98v53a4 4 0 0 0 4 4h64a4 4 0 0 0 4-4v-53h284v53a4 4 0 0 0 4 4h64a4 4 0 0 0 4-4v-53h98zM275.7 608h104.6a3.8 3.8 0 0 0 3.7-3.7v-56.6a3.8 3.8 0 0 0-3.7-3.7H275.7a3.8 3.8 0 0 0-3.7 3.7v56.6a3.8 3.8 0 0 0 3.7 3.7z m0 136h104.6a3.8 3.8 0 0 0 3.7-3.7v-56.6a3.8 3.8 0 0 0-3.7-3.7H275.7a3.8 3.8 0 0 0-3.7 3.7v56.6a3.8 3.8 0 0 0 3.7 3.7z m184-136h104.6a3.8 3.8 0 0 0 3.7-3.7v-56.6a3.8 3.8 0 0 0-3.7-3.7H459.7a3.8 3.8 0 0 0-3.7 3.7v56.6a3.8 3.8 0 0 0 3.7 3.7z m0 136h104.6a3.8 3.8 0 0 0 3.7-3.7v-56.6a3.8 3.8 0 0 0-3.7-3.7H459.7a3.8 3.8 0 0 0-3.7 3.7v56.6a3.8 3.8 0 0 0 3.7 3.7z m184-136h104.6a3.8 3.8 0 0 0 3.7-3.7v-56.6a3.8 3.8 0 0 0-3.7-3.7H643.7a3.8 3.8 0 0 0-3.7 3.7v56.6a3.8 3.8 0 0 0 3.7 3.7z m0 136h104.6a3.8 3.8 0 0 0 3.7-3.7v-56.6a3.8 3.8 0 0 0-3.7-3.7H643.7a3.8 3.8 0 0 0-3.7 3.7v56.6a3.8 3.8 0 0 0 3.7 3.7z" /></svg>