<?xml version="1.0" standalone="no"?><!DOCTYPE svg PUBLIC "-//W3C//DTD SVG 1.1//EN" "http://www.w3.org/Graphics/SVG/1.1/DTD/svg11.dtd"><svg class="icon" width="200px" height="200.00px" viewBox="0 0 1024 1024" version="1.1" xmlns="http://www.w3.org/2000/svg"><path d="M271.488 149.333333c13.269333 0 21.973333 0.298667 24.32 0.341333l2.816 0c61.354667 0 111.872 6.485333 128.085333 13.013333 7.509333 18.944 13.354667 79.530667 12.885333 136.405333 0.512 56.106667-5.376 116.650667-12.885333 135.594667-16.170667 6.485333-66.602667 13.013333-127.914667 13.013333L293.845333 447.701333c-0.426667 0-9.258667 0.341333-22.656 0.341333-59.946667 0-99.584-6.016-113.962667-12.330667C147.84 421.418667 139.093333 363.562667 141.098667 298.88l0.085333-1.450667L141.098667 296.064C139.093333 232.618667 147.754667 175.786667 157.141333 161.749333 171.52 155.434667 211.242667 149.333333 271.488 149.333333L271.488 149.333333M271.488 106.666667c-37.077333 0-107.392 2.304-137.258667 18.816C93.44 148.053333 98.346667 292.906667 98.474667 297.6c-0.128 4.736-4.992 151.765333 35.797333 174.336C164.053333 488.32 233.984 490.666667 271.146667 490.666667c14.677333 0 24.234667-0.341333 24.234667-0.341333s1.194667 0 3.413333 0c21.248 0 135.68-1.152 159.018667-25.216C483.584 438.570667 482.304 298.666667 482.304 298.666667s1.28-139.861333-24.448-166.4C434.432 108.117333 319.402667 107.008 298.666667 107.008c-2.090667 0-3.242667 0-3.242667 0S285.994667 106.666667 271.488 106.666667L271.488 106.666667zM703.658667 149.333333c13.226667 0 21.930667 0.298667 24.234667 0.341333l2.816 0c61.397333 0 111.914667 6.485333 128.085333 13.013333 7.509333 18.901333 13.397333 79.530667 12.928 136.405333 0.512 56.064-5.376 116.650667-12.928 135.594667-16.128 6.485333-66.602667 13.013333-127.914667 13.013333l-4.992 0c-0.341333 0-9.173333 0.341333-22.570667 0.341333-59.989333 0-99.584-6.016-114.005333-12.330667-10.496-15.744-18.133333-79.317333-16.085333-136.576L573.226667 297.557333 573.226667 296.021333c-2.048-56.277333 5.504-118.826667 16-134.272C603.562667 155.434667 643.328 149.333333 703.658667 149.333333L703.658667 149.333333M703.658667 106.666667c-37.12 0-107.434667 2.304-137.258667 18.816-40.832 22.570667-36.010667 167.424-35.84 172.074667-0.170667 4.736-4.992 151.765333 35.84 174.336 29.738667 16.426667 99.712 18.730667 136.917333 18.730667 14.677333 0 24.192-0.341333 24.192-0.341333s1.194667 0 3.370667 0c21.290667 0 135.68-1.152 159.018667-25.216C915.754667 438.570667 914.432 298.666667 914.432 298.666667s1.28-139.861333-24.490667-166.4c-23.381333-24.149333-138.325333-25.258667-159.146667-25.258667-2.090667 0-3.2 0-3.2 0S718.08 106.666667 703.658667 106.666667L703.658667 106.666667zM271.317333 576c13.312 0 22.101333 0.341333 24.448 0.341333l2.816 0c61.354667 0 111.872 6.485333 128.128 13.013333 7.509333 18.944 13.354667 79.530667 12.885333 136.405333 0.554667 56.064-5.376 116.650667-12.885333 135.594667-16.170667 6.485333-66.602667 13.013333-127.957333 13.013333L293.845333 874.368c-0.426667 0-9.173333 0.341333-22.485333 0.341333-60.074667 0-99.712-6.058667-114.133333-12.330667-9.386667-14.293333-18.133333-72.064-16.128-136.832l0.085333-1.408-0.085333-1.322667c-2.005333-63.488 6.656-120.32 16.042667-134.314667C171.52 582.101333 211.157333 576 271.317333 576M271.317333 533.333333c-37.12 0-107.264 2.346667-137.088 18.816-40.789333 22.528-35.925333 167.381333-35.797333 172.032C98.346667 728.96 93.44 875.946667 134.229333 898.56c29.824 16.469333 99.925333 18.773333 137.088 18.773333 14.592 0 24.064-0.341333 24.064-0.341333s1.152 0 3.370667 0c21.290667 0 135.722667-1.152 159.061333-25.216C483.584 865.237333 482.304 725.333333 482.304 725.333333s1.28-139.904-24.448-166.4c-23.424-24.149333-138.410667-25.258667-159.189333-25.258667-2.090667 0-3.2 0-3.2 0S285.909333 533.333333 271.317333 533.333333L271.317333 533.333333zM703.488 576c13.312 0 22.101333 0.341333 24.405333 0.341333l2.816 0c61.397333 0 111.914667 6.485333 128.085333 13.013333 7.509333 18.901333 13.397333 79.530667 12.928 136.405333 0.512 56.064-5.376 116.650667-12.928 135.594667-16.128 6.485333-66.602667 13.013333-127.914667 13.013333l-4.949333 0c-0.384 0-9.173333 0.341333-22.485333 0.341333-60.074667 0-99.712-6.058667-114.133333-12.330667-10.496-15.829333-18.261333-80.512-16.085333-136.405333l0.042667-1.749333-0.042667-1.664c-2.176-54.997333 5.504-118.570667 16-134.101333C603.562667 582.101333 643.242667 576 703.488 576M703.488 533.333333c-37.162667 0-107.306667 2.346667-137.088 18.816-40.832 22.528-36.010667 167.381333-35.84 172.032-0.170667 4.736-4.992 151.765333 35.84 174.336 29.781333 16.469333 99.925333 18.773333 137.045333 18.773333 14.592 0 24.064-0.341333 24.064-0.341333s1.194667 0 3.370667 0c21.290667 0 135.68-1.152 159.018667-25.216C915.754667 865.237333 914.432 725.333333 914.432 725.333333s1.28-139.904-24.490667-166.4c-23.381333-24.149333-138.325333-25.258667-159.146667-25.258667-2.090667 0-3.2 0-3.2 0S718.08 533.333333 703.488 533.333333L703.488 533.333333z" /></svg>