<?xml version="1.0" standalone="no"?><!DOCTYPE svg PUBLIC "-//W3C//DTD SVG 1.1//EN" "http://www.w3.org/Graphics/SVG/1.1/DTD/svg11.dtd"><svg class="icon" width="200px" height="200.00px" viewBox="0 0 1024 1024" version="1.1" xmlns="http://www.w3.org/2000/svg"><path  d="M803.2 633.6c19.2-19.2 28.8-44.8 28.8-73.6 0-60.8-51.2-112-112-112S608 499.2 608 560c0 28.8 9.6 54.4 28.8 73.6-54.4 32-92.8 89.6-92.8 160v89.6c0 22.4 19.2 41.6 41.6 41.6h268.8c22.4 0 41.6-19.2 41.6-41.6V800c0-70.4-38.4-134.4-92.8-166.4zM720 512c25.6 0 48 22.4 48 48s-22.4 48-48 48-48-22.4-48-48 22.4-48 48-48zM832 860.8h-224v-70.4c0-67.2 48-118.4 112-118.4 60.8 0 112 57.6 112 124.8v64zM832 160h-64V128c0-19.2-12.8-32-32-32s-32 12.8-32 32v32H320V128c0-19.2-12.8-32-32-32s-32 16-32 32v32H192c-35.2 0-64 28.8-64 64v640c0 35.2 28.8 64 64 64h256c19.2 0 32-12.8 32-32s-12.8-32-32-32H192V352h640v64c0 19.2 12.8 32 32 32s32-12.8 32-32V224c0-35.2-28.8-64-64-64zM192 288V224h640v64H192zM512 480H288c-19.2 0-32 12.8-32 32s12.8 32 32 32h224c19.2 0 32-12.8 32-32s-12.8-32-32-32zM288 640c-19.2 0-32 12.8-32 32s12.8 32 32 32h160c19.2 0 32-12.8 32-32s-12.8-32-32-32H288z" /></svg>