<?xml version="1.0" standalone="no"?><!DOCTYPE svg PUBLIC "-//W3C//DTD SVG 1.1//EN" "http://www.w3.org/Graphics/SVG/1.1/DTD/svg11.dtd"><svg class="icon" width="200px" height="200.00px" viewBox="0 0 1024 1024" version="1.1" xmlns="http://www.w3.org/2000/svg"><path  d="M848 666.9a128 128 0 0 0-90.5-37.4 131.8 131.8 0 0 0-14.1 0.7L625.1 512l58.9-58.9a160 160 0 0 0 190.4-213l-81.1 81.1a64 64 0 0 1-90.5 0 64 64 0 0 1 0-90.5l81.1-81.1a160 160 0 0 0-213 190.4L512 398.9 453.1 340a160 160 0 0 0-213-190.4l81.1 81.1a64 64 0 0 1 0 90.5 64 64 0 0 1-90.5 0l-81.1-81.1a160 160 0 0 0 190.4 213l58.9 58.9-118.3 118.2a130.5 130.5 0 0 0-14.1-0.7 128 128 0 1 0 127.3 113.9L512 625.1l118.2 118.3A128 128 0 1 0 848 666.9zM306.1 797a56 56 0 1 1-39.5-95.5 55.9 55.9 0 0 1 39.5 95.5z m491 0a56 56 0 1 1-0.1-79.1 55.8 55.8 0 0 1 0.1 79.1z" /></svg>