<?xml version="1.0" standalone="no"?><!DOCTYPE svg PUBLIC "-//W3C//DTD SVG 1.1//EN" "http://www.w3.org/Graphics/SVG/1.1/DTD/svg11.dtd"><svg class="icon" width="200px" height="200.00px" viewBox="0 0 1024 1024" version="1.1" xmlns="http://www.w3.org/2000/svg"><path d="M915.968 513.536h-45.056c-3.584 0-6.144-2.56-6.144-6.144V139.776c0-6.656-5.632-11.776-11.776-11.776H302.08c-6.656 0-11.776 5.632-11.776 11.776v108.544c0 3.072-2.56 6.144-6.144 6.144H173.056c-6.656 0-11.776 5.632-11.776 11.776v241.152c0 3.072-2.56 6.144-6.144 6.144h-45.056c-6.656 0-11.776 5.632-11.776 11.776V947.2c0 6.656 5.632 11.776 11.776 11.776h805.888c6.656 0 11.776-5.632 11.776-11.776v-421.376c0-6.656-5.12-12.288-11.776-12.288zM353.792 198.144c0-3.072 2.56-6.144 6.144-6.144h435.2c3.072 0 6.144 2.56 6.144 6.144v308.224c0 3.072-2.56 6.144-6.144 6.144h-435.2c-3.072 0-6.144-2.56-6.144-6.144V198.144zM224.768 324.608c0-3.072 2.56-6.144 6.144-6.144h49.152c3.072 0 6.144 2.56 6.144 6.144v181.248c0 3.072-2.56 6.144-6.144 6.144h-49.152c-3.072 0-6.144-2.56-6.144-6.144V324.608z m639.488 564.736c0 3.072-2.56 6.144-6.144 6.144H167.936c-3.072 0-6.144-2.56-6.144-6.144V583.68c0-3.072 2.56-6.144 6.144-6.144h690.176c3.072 0 6.144 2.56 6.144 6.144v305.664zM761.856 640h-52.224c-3.072 0-6.144 2.56-6.144 6.144v53.248c0 3.072-2.56 6.144-6.144 6.144H325.12c-3.072 0-6.144-2.56-6.144-6.144v-53.248c0-3.072-2.56-6.144-6.144-6.144H261.12c-3.072 0-6.144 2.56-6.144 6.144v179.712c0 3.072 2.56 6.144 6.144 6.144h52.224c3.072 0 6.144-2.56 6.144-6.144v-51.712c0-3.584 2.56-6.144 6.144-6.144h372.736c3.072 0 6.144 2.56 6.144 6.144v51.712c0 3.072 2.56 6.144 6.144 6.144H762.88c3.072 0 6.144-2.56 6.144-6.144v-179.712c-1.536-3.584-4.096-6.144-7.168-6.144zM427.008 320H727.04c5.632 0 10.24-2.56 10.24-6.144V262.144c0-3.072-4.608-6.144-10.24-6.144H427.008c-5.632 0-10.24 2.56-10.24 6.144v52.224c0.512 3.072 4.608 5.632 10.24 5.632zM427.008 448H727.04c5.632 0 10.24-2.56 10.24-6.144V389.632c0-3.072-4.608-6.144-10.24-6.144H427.008c-5.632 0-10.24 2.56-10.24 6.144v52.224c0.512 3.072 4.608 6.144 10.24 6.144z" /></svg>